<svg xmlns="http://www.w3.org/2000/svg" width="530.412" height="442.372" viewBox="0 0 530.412 442.372"><defs><style>.a{fill:rgba(2,138,189,0.1);}.b{fill:#85d5cb;}.c{fill:#1bac99;}.d{fill:#2e5175;}.e,.h{fill:#fff;}.f{fill:#c5e6ef;}.g{fill:#bbd0f7;opacity:0.3;}.h{opacity:0.23;}.i{fill:#fab655;}.j{fill:#f4d0c1;}.k{fill:#13556e;}.l{fill:#f8ab3e;}.m{fill:#028abd;}.n{fill:none;}.o{font-size:9px;font-family:Poppins-Medium, Poppins;font-weight:500;}.p{letter-spacing:-0.03em;}.q{letter-spacing:-0.06em;}.r{letter-spacing:-0.01em;}.s{letter-spacing:0.02em;}.t{fill:#c7e4ee;}.u{fill:#344e6c;}.v{fill:#4e7bf9;}</style></defs><g transform="translate(-835.588 -187.932)"><g transform="translate(866 195.932)"><g transform="translate(0 -8)"><path class="a" d="M185.008,33.634c41.97-.446,83.6-7.808,122.168-22.726C330.17,2.016,384.7-3.474,419.929,2.5c30.579,5.19,103.418,28.86,72.641,109.056s-70.038,88.537-41.16,140.878c21.209,38.441,57.655,76.6,25.663,107.345C427.32,407.595,222.99,478.469,116.919,420.759s-128.554-78.478-96.625-168.91S-30.4,150.464,12.808,83.4C38.721,43.183,122.277,34.3,185.008,33.634Z" transform="translate(0 0)"/><g transform="translate(303.061 27.068)"><path class="b" d="M256.464,60.226c-25.868,22.553-35.2,42.035-28.829,50.673L322.362,28.31C314.644,30.249,279.872,39.818,256.464,60.226Z" transform="translate(-219.582 -17.026)"/><path class="b" d="M323.4,28.035s-.552.125-1.56.378L227.114,111c.147.2.292.4.455.586,7.255,8.322,28.184,1.948,54.648-21.124S323.4,28.035,323.4,28.035Z" transform="translate(-219.061 -17.128)"/><path class="c" d="M248.345,89q9.539-8.363,19.1-16.7,19.1-16.7,37.992-33.638a.146.146,0,0,0-.192-.22Q292.179,49.533,279.2,60.732a68.458,68.458,0,0,0,.888-14.648.254.254,0,0,0-.487-.033,70.365,70.365,0,0,0-1.11,15.291q-5.88,5.07-11.751,10.149-9.571,8.325-19.147,16.646c-6.352,5.507-13.175,10.747-19.055,16.751a.465.465,0,0,0,.61.7C235.9,100.584,242.025,94.537,248.345,89Z" transform="translate(-218.586 -13.292)"/><path class="c" d="M248.7,76.7a143.13,143.13,0,0,0,1.629-24.567.159.159,0,0,0-.318-.022,143.109,143.109,0,0,0-1.734,24.559.212.212,0,0,0,.423.029Z" transform="translate(-211.239 -8.275)"/><path class="c" d="M275.933,63.781c-3.251-.414-6.517-.693-9.779-1.009a41.865,41.865,0,0,0-8.848-.351.24.24,0,0,0-.031.461,41.831,41.831,0,0,0,8.813.858c3.274.131,6.548.3,9.825.332a.146.146,0,0,0,.02-.291Z" transform="translate(-207.963 -4.444)"/><path class="d" d="M257.623,78.941a125.276,125.276,0,0,0-16.964-1.308.266.266,0,0,0-.036.53,125.212,125.212,0,0,0,16.984,1.016.119.119,0,0,0,.016-.238Z" transform="translate(-214.152 1.216)"/><path class="d" d="M234.927,88.418a112.073,112.073,0,0,0,1.288-20.176.173.173,0,0,0-.344-.024A112.088,112.088,0,0,0,234.4,88.382a.266.266,0,0,0,.53.036Z" transform="translate(-216.373 -2.323)"/><g transform="translate(10.652 67.736)"><path class="b" d="M268.112,74.051c-27.265,8.569-40.888,20.317-38.914,29.033l99.844-31.379C322.507,70.607,292.785,66.3,268.112,74.051Z" transform="translate(-229.011 -69.52)"/><path class="b" d="M330.308,71.348s-.463-.089-1.316-.233l-99.844,31.379c.045.2.089.4.151.6,2.757,8.771,20.852,10.9,48.745,2.131S330.308,71.348,330.308,71.348Z" transform="translate(-228.96 -68.93)"/><path class="c" d="M251.246,95.239q10.069-3.2,20.147-6.363Q291.544,82.517,311.61,75.9a.122.122,0,0,0-.073-.232q-13.673,4.1-27.312,8.312A56.985,56.985,0,0,0,289.793,73.1a.211.211,0,0,0-.36-.188,58.585,58.585,0,0,0-5.952,11.3c-4.119,1.27-8.24,2.532-12.354,3.82q-10.082,3.156-20.165,6.306c-6.685,2.081-13.64,3.8-20.13,6.418a.387.387,0,0,0,.232.738C237.885,99.925,244.574,97.356,251.246,95.239Z" transform="translate(-228.432 -68.289)"/><path class="c" d="M251.82,91.987a119.171,119.171,0,0,0,9.445-18.2.133.133,0,1,0-.235-.123,119.181,119.181,0,0,0-9.523,18.157.177.177,0,1,0,.313.164Z" transform="translate(-220.698 -68.013)"/><path class="c" d="M274.714,91.352c-2.342-1.4-4.741-2.7-7.123-4.035a34.858,34.858,0,0,0-6.633-3.222.2.2,0,0,0-.178.341,34.8,34.8,0,0,0,6.437,3.6c2.454,1.194,4.9,2.415,7.385,3.534a.122.122,0,0,0,.113-.215Z" transform="translate(-217.284 -64.131)"/><path class="c" d="M255.678,96.82a104.292,104.292,0,0,0-12.506-6.662.221.221,0,0,0-.2.392A104.3,104.3,0,0,0,255.586,97a.1.1,0,0,0,.092-.177Z" transform="translate(-223.89 -61.894)"/><path class="e" d="M237,96.344a93.344,93.344,0,0,0,7.719-14.962.144.144,0,0,0-.255-.133,93.309,93.309,0,0,0-7.856,14.89.221.221,0,0,0,.392.2Z" transform="translate(-226.209 -65.208)"/></g><path class="b" d="M236.057,55.466C221.3,76.483,218.016,92.308,224.19,97.442l54.022-76.965C272.951,23.268,249.406,36.448,236.057,55.466Z" transform="translate(-221.235 -19.923)"/><path class="b" d="M278.48,20.073s-.379.189-1.066.554L223.392,97.592c.142.118.283.237.435.344,6.761,4.746,20.824-3.633,35.916-25.135S278.48,20.073,278.48,20.073Z" transform="translate(-220.437 -20.073)"/><path class="c" d="M235.658,76.866q5.432-7.784,10.884-15.553,10.889-15.551,21.575-31.241a.11.11,0,0,0-.178-.125q-7.5,10.4-14.926,20.861a51.225,51.225,0,0,0-1.978-10.8.19.19,0,0,0-.359.063,52.637,52.637,0,0,0,1.932,11.307q-3.363,4.736-6.718,9.478-5.462,7.762-10.928,15.522c-3.628,5.138-7.646,10.167-10.842,15.582a.348.348,0,0,0,.569.4C228.695,87.513,232.059,82.024,235.658,76.866Z" transform="translate(-220.189 -16.435)"/><path class="e" d="M236.6,64.246a107.087,107.087,0,0,0-3.217-18.138.119.119,0,0,0-.235.041A107.092,107.092,0,0,0,236.282,64.3a.159.159,0,0,0,.313-.055Z" transform="translate(-216.831 -10.479)"/><path class="c" d="M254.4,50.512c-2.436.282-4.859.664-7.285,1.018a31.324,31.324,0,0,0-6.491,1.33.18.18,0,0,0,.06.34,31.278,31.278,0,0,0,6.556-.955c2.4-.491,4.811-.955,7.2-1.518a.11.11,0,0,0-.038-.215Z" transform="translate(-214.102 -8.815)"/><path class="e" d="M243.815,64.757a93.758,93.758,0,0,0-12.558,2.089.2.2,0,0,0,.068.391,93.69,93.69,0,0,0,12.521-2.3.089.089,0,0,0-.031-.176Z" transform="translate(-217.586 -3.546)"/><path class="e" d="M228.735,75.211a83.853,83.853,0,0,0-2.678-14.888.129.129,0,0,0-.254.045,83.849,83.849,0,0,0,2.541,14.911.2.2,0,0,0,.391-.068Z" transform="translate(-219.546 -5.224)"/></g><g transform="translate(303.061 27.068)"><path class="b" d="M256.464,60.226c-25.868,22.553-35.2,42.035-28.829,50.673L322.362,28.31C314.644,30.249,279.872,39.818,256.464,60.226Z" transform="translate(-219.582 -17.026)"/><path class="b" d="M323.4,28.035s-.552.125-1.56.378L227.114,111c.147.2.292.4.455.586,7.255,8.322,28.184,1.948,54.648-21.124S323.4,28.035,323.4,28.035Z" transform="translate(-219.061 -17.128)"/><path class="c" d="M248.345,89q9.539-8.363,19.1-16.7,19.1-16.7,37.992-33.638a.146.146,0,0,0-.192-.22Q292.179,49.533,279.2,60.732a68.458,68.458,0,0,0,.888-14.648.254.254,0,0,0-.487-.033,70.365,70.365,0,0,0-1.11,15.291q-5.88,5.07-11.751,10.149-9.571,8.325-19.147,16.646c-6.352,5.507-13.175,10.747-19.055,16.751a.465.465,0,0,0,.61.7C235.9,100.584,242.025,94.537,248.345,89Z" transform="translate(-218.586 -13.292)"/><path class="c" d="M248.7,76.7a143.13,143.13,0,0,0,1.629-24.567.159.159,0,0,0-.318-.022,143.109,143.109,0,0,0-1.734,24.559.212.212,0,0,0,.423.029Z" transform="translate(-211.239 -8.275)"/><path class="c" d="M275.933,63.781c-3.251-.414-6.517-.693-9.779-1.009a41.865,41.865,0,0,0-8.848-.351.24.24,0,0,0-.031.461,41.831,41.831,0,0,0,8.813.858c3.274.131,6.548.3,9.825.332a.146.146,0,0,0,.02-.291Z" transform="translate(-207.963 -4.444)"/><path class="d" d="M257.623,78.941a125.276,125.276,0,0,0-16.964-1.308.266.266,0,0,0-.036.53,125.212,125.212,0,0,0,16.984,1.016.119.119,0,0,0,.016-.238Z" transform="translate(-214.152 1.216)"/><path class="d" d="M234.927,88.418a112.073,112.073,0,0,0,1.288-20.176.173.173,0,0,0-.344-.024A112.088,112.088,0,0,0,234.4,88.382a.266.266,0,0,0,.53.036Z" transform="translate(-216.373 -2.323)"/><g transform="translate(10.652 67.736)"><path class="b" d="M268.112,74.051c-27.265,8.569-40.888,20.317-38.914,29.033l99.844-31.379C322.507,70.607,292.785,66.3,268.112,74.051Z" transform="translate(-229.011 -69.52)"/><path class="b" d="M330.308,71.348s-.463-.089-1.316-.233l-99.844,31.379c.045.2.089.4.151.6,2.757,8.771,20.852,10.9,48.745,2.131S330.308,71.348,330.308,71.348Z" transform="translate(-228.96 -68.93)"/><path class="c" d="M251.246,95.239q10.069-3.2,20.147-6.363Q291.544,82.517,311.61,75.9a.122.122,0,0,0-.073-.232q-13.673,4.1-27.312,8.312A56.985,56.985,0,0,0,289.793,73.1a.211.211,0,0,0-.36-.188,58.585,58.585,0,0,0-5.952,11.3c-4.119,1.27-8.24,2.532-12.354,3.82q-10.082,3.156-20.165,6.306c-6.685,2.081-13.64,3.8-20.13,6.418a.387.387,0,0,0,.232.738C237.885,99.925,244.574,97.356,251.246,95.239Z" transform="translate(-228.432 -68.289)"/><path class="c" d="M251.82,91.987a119.171,119.171,0,0,0,9.445-18.2.133.133,0,1,0-.235-.123,119.181,119.181,0,0,0-9.523,18.157.177.177,0,1,0,.313.164Z" transform="translate(-220.698 -68.013)"/><path class="c" d="M274.714,91.352c-2.342-1.4-4.741-2.7-7.123-4.035a34.858,34.858,0,0,0-6.633-3.222.2.2,0,0,0-.178.341,34.8,34.8,0,0,0,6.437,3.6c2.454,1.194,4.9,2.415,7.385,3.534a.122.122,0,0,0,.113-.215Z" transform="translate(-217.284 -64.131)"/><path class="c" d="M255.678,96.82a104.292,104.292,0,0,0-12.506-6.662.221.221,0,0,0-.2.392A104.3,104.3,0,0,0,255.586,97a.1.1,0,0,0,.092-.177Z" transform="translate(-223.89 -61.894)"/><path class="e" d="M237,96.344a93.344,93.344,0,0,0,7.719-14.962.144.144,0,0,0-.255-.133,93.309,93.309,0,0,0-7.856,14.89.221.221,0,0,0,.392.2Z" transform="translate(-226.209 -65.208)"/></g><path class="b" d="M236.057,55.466C221.3,76.483,218.016,92.308,224.19,97.442l54.022-76.965C272.951,23.268,249.406,36.448,236.057,55.466Z" transform="translate(-221.235 -19.923)"/><path class="b" d="M278.48,20.073s-.379.189-1.066.554L223.392,97.592c.142.118.283.237.435.344,6.761,4.746,20.824-3.633,35.916-25.135S278.48,20.073,278.48,20.073Z" transform="translate(-220.437 -20.073)"/><path class="c" d="M235.658,76.866q5.432-7.784,10.884-15.553,10.889-15.551,21.575-31.241a.11.11,0,0,0-.178-.125q-7.5,10.4-14.926,20.861a51.225,51.225,0,0,0-1.978-10.8.19.19,0,0,0-.359.063,52.637,52.637,0,0,0,1.932,11.307q-3.363,4.736-6.718,9.478-5.462,7.762-10.928,15.522c-3.628,5.138-7.646,10.167-10.842,15.582a.348.348,0,0,0,.569.4C228.695,87.513,232.059,82.024,235.658,76.866Z" transform="translate(-220.189 -16.435)"/><path class="e" d="M236.6,64.246a107.087,107.087,0,0,0-3.217-18.138.119.119,0,0,0-.235.041A107.092,107.092,0,0,0,236.282,64.3a.159.159,0,0,0,.313-.055Z" transform="translate(-216.831 -10.479)"/><path class="c" d="M254.4,50.512c-2.436.282-4.859.664-7.285,1.018a31.324,31.324,0,0,0-6.491,1.33.18.18,0,0,0,.06.34,31.278,31.278,0,0,0,6.556-.955c2.4-.491,4.811-.955,7.2-1.518a.11.11,0,0,0-.038-.215Z" transform="translate(-214.102 -8.815)"/><path class="e" d="M243.815,64.757a93.758,93.758,0,0,0-12.558,2.089.2.2,0,0,0,.068.391,93.69,93.69,0,0,0,12.521-2.3.089.089,0,0,0-.031-.176Z" transform="translate(-217.586 -3.546)"/><path class="e" d="M228.735,75.211a83.853,83.853,0,0,0-2.678-14.888.129.129,0,0,0-.254.045,83.849,83.849,0,0,0,2.541,14.911.2.2,0,0,0,.391-.068Z" transform="translate(-219.546 -5.224)"/></g><g transform="translate(169.678 47.765)"><path class="f" d="M122.087,35.8H271.764V334.383A14.419,14.419,0,0,1,257.345,348.8H136.5a14.419,14.419,0,0,1-14.419-14.419V35.8Z" transform="translate(-116.152 -28.316)"/><path d="M255.867,29.758h-115.6A22.969,22.969,0,0,0,117.3,52.728V333.087a22.969,22.969,0,0,0,22.969,22.969h115.6a22.969,22.969,0,0,0,22.969-22.969V52.728a22.969,22.969,0,0,0-22.969-22.969Zm15.421,303.329a15.439,15.439,0,0,1-15.421,15.421h-115.6a15.438,15.438,0,0,1-15.421-15.421V52.728a15.439,15.439,0,0,1,15.421-15.421h15.068a2.459,2.459,0,0,1,2.023,2.443s2.545,9.13,6.848,9.13h67.723c4.3,0,6.848-9.129,6.848-9.129a2.459,2.459,0,0,1,2.023-2.443h15.068a15.439,15.439,0,0,1,15.421,15.421Z" transform="translate(-117.295 -29.758)"/><path class="g" d="M255.867,29.758h-115.6A22.969,22.969,0,0,0,117.3,52.728V333.087a22.969,22.969,0,0,0,22.969,22.969h115.6a22.969,22.969,0,0,0,22.969-22.969V52.728a22.969,22.969,0,0,0-22.969-22.969Zm15.421,303.329a15.439,15.439,0,0,1-15.421,15.421h-115.6a15.438,15.438,0,0,1-15.421-15.421V52.728a15.439,15.439,0,0,1,15.421-15.421h15.068a2.459,2.459,0,0,1,2.023,2.443s2.545,9.13,6.848,9.13h67.723c4.3,0,6.848-9.129,6.848-9.129a2.459,2.459,0,0,1,2.023-2.443h15.068a15.439,15.439,0,0,1,15.421,15.421Z" transform="translate(-117.295 -29.758)"/><path class="h" d="M199.333,39.5a2.847,2.847,0,1,1-2.847-2.847,2.847,2.847,0,0,1,2.847,2.847Z" transform="translate(-99.07 -28.112)"/><path class="h" d="M192.567,40.533H174.718a1.219,1.219,0,0,1-1.219-1.219h0a1.219,1.219,0,0,1,1.219-1.219h17.849a1.219,1.219,0,0,1,1.219,1.219h0a1.219,1.219,0,0,1-1.219,1.219Z" transform="translate(-103.878 -27.768)"/></g><g transform="translate(280.309 168.204)"><path class="i" d="M262.741,191.067c-4.693,5.042-8,37.349-8.125,38.549s-23.758,14.5-23.758,14.5l3.327,3.807s25.186-6.344,29.716-11.822c3.842-4.646,12.722-42.627,12.722-42.627S270.528,182.7,262.741,191.067Z" transform="translate(-195.858 -138.689)"/><path class="j" d="M288.811,296.7a43.738,43.738,0,0,0,2.895,4.887c.97,1.173,5.18-1.484,5.21-2.445s-3.74-6.8-3.74-6.8" transform="translate(-147.9 -52.25)"/><path d="M301.277,296.732c.91,1.29,2.405,3.85,2.405,3.85l-3.718,3.392-.972-.418a8.306,8.306,0,0,1-1.74,2.749,19.221,19.221,0,0,1-3.845,2.622c-3.7,1.725-6.806,1.987-7.229,1.543-1.769-1.857,3.13-4.193,4.048-4.8a6.866,6.866,0,0,0,3.082-6.407c-.2-1.223-.565-1.324.1-1.513a1.7,1.7,0,0,1,1.293.129,3.019,3.019,0,0,0,3.4-.36,3.392,3.392,0,0,0,1.092-1.811A2.1,2.1,0,0,1,301.277,296.732Z" transform="translate(-150.395 -49.476)"/><path class="j" d="M250.279,303.084a10.846,10.846,0,0,0-.814,3.791c.116,1.505,5.119,1.617,5.7.836s.872-7.694.872-7.694" transform="translate(-180.46 -45.896)"/><path d="M262.547,306.557a30.736,30.736,0,0,1-.455,4.125h-5.765l-.284-.922a9.346,9.346,0,0,1-3.337.922H247.84c-3.562,0-5.584-.435-5.674-1.035-.376-2.51,3.879-2.4,4.987-2.4,3.181,0,6.626-1.427,7.376-2.975.545-1.123.3-1.407.962-1.2a1.638,1.638,0,0,1,.987.817,2.951,2.951,0,0,0,3.006,1.572,3.541,3.541,0,0,0,1.948-.9A2.013,2.013,0,0,1,262.547,306.557Z" transform="translate(-186.52 -43.416)"/><path class="k" d="M267.705,225.069c-1.925.647-8.8-1.875-9.088,1.62-.268,3.083-9.552,46.105-10.909,64.736l-.006.033c-.084.615-.7,5.888-.7,8.862.006,10.642,3.7,44.344,3.435,64.923v1.343a41.161,41.161,0,0,0,7.63.5c.219,0,.455,0,.692-.017,1.386-12.816,4.384-30.243,5.806-47.776a40.2,40.2,0,0,0-.448-10.2,13.75,13.75,0,0,1-.658-4.207c.034-.071.081-.151.1-.214v-.016c2.869-8.219,11.513-39.548,13.37-48.915.051-.226,4.723,5.128,4.757,4.918C284.208,247.555,277.311,221.882,267.705,225.069Z" transform="translate(-182.497 -108.15)"/><path class="k" d="M301.172,308.033c-3.319-4.123-6.821-5.969-7.857-9.109-2.41-7.3-1.757-36.921-1.987-45.143.685-1.682,7.075-18.495-5.892-30.881,0,0-11.658,5-20.994,5.605a48.135,48.135,0,0,1-11.084-.254s6.943,10.473,7.348,15.116c.688,7.887,15.433,55.518,16.557,58.13a31.12,31.12,0,0,0,6.327,9.5c6.536,8.5,21.834,26.392,33.433,43.523l.784,1.108a31.981,31.981,0,0,0,6.668-3.776C318.228,340.446,311.689,321.1,301.172,308.033Z" transform="translate(-177.239 -109.712)"/><path class="i" d="M248.631,192.571c2.328-2.671,12.319-6.8,22.2-6.488,6.805.215,28.437,2.442,30.508,7,1.059,2.327.956,24.417-.594,32.635-1.165,6.179-4.686,22.058-4.686,25.752s1.984,5.277,1.059,6.351c-2.074,2.4-17.576,3.478-24.233,3.478-5.926,0-16.013-1.58-16.524-3.478-.76-2.818,1.156-2.713,1.416-5.667s1.656-22.437-.079-25.269a77.893,77.893,0,0,1-7.149-20.619C250.332,202.873,246.3,195.241,248.631,192.571Z" transform="translate(-181.748 -140.193)"/><path class="l" d="M297.373,190.159A2.541,2.541,0,0,0,297,189.6l-14.268,13.952c-3.4,9.051-10.177,32.867-10.177,32.867s-6.422,3.013-10.731,5.249c-1.092.567-4.176,2.642-7.828,5.174-.076,1.087-.143,1.943-.183,2.389-.26,2.954-.665,2.935.094,5.753a56.446,56.446,0,0,1-1.2,7.452c10.72-2.74,32.845-9.675,33.683-10.13,1.256-.682,7.769-26.881,11.541-42.79C298.506,199.823,298.148,191.863,297.373,190.159Z" transform="translate(-177.784 -137.273)"/><path class="j" d="M258.336,183.827a77.411,77.411,0,0,1-.4,8.551,12.993,12.993,0,0,1-1.956,1.1s1.158,7.143,2.948,6.613,13.61-6.5,13.61-6.5-1.677-.682-1.677-1.345,1.591-13.589,1.591-13.589" transform="translate(-175.067 -146.325)"/><path d="M263.779,167.1a5.007,5.007,0,0,0-5.1-.339,7.438,7.438,0,0,0-3.48,3.942,5.861,5.861,0,0,0-.007,5.019,3.077,3.077,0,0,0-1.929,2.931,7.354,7.354,0,0,0,1.519,3.772,3.433,3.433,0,0,0,3.406,1.419,3.861,3.861,0,0,0,2.17-1.518,10,10,0,0,0,1.223-2.4,66.373,66.373,0,0,0,3.306-12.08" transform="translate(-177.318 -156.618)"/><path class="j" d="M268.171,165.15c-1.722.47-6.263-.47-7.516,1.409a42.737,42.737,0,0,0-2.818,7.673c-.935,2.494-1.545,5.159-2.224,7.729-.885,3.35-3.162,9.661.117,12.464a6.647,6.647,0,0,0,3.344,1.11c1.551.281,3.1.6,4.647.877a15.591,15.591,0,0,0,7.456.159c3.191-1.036,4.941-5.423,5.761-8.4l4.7-17.067Z" transform="translate(-176.693 -157.502)"/><g transform="translate(98.503 26.222)"><path class="j" d="M265.63,181.458a1.451,1.451,0,0,0,2.345,1.386,5.006,5.006,0,0,0,2.691-4.214c.141-2.024-1.153-3.882-2.907-3.157a2.7,2.7,0,0,0-1.41,2.806" transform="translate(-265.606 -175.314)"/></g><path d="M279.463,183.992c-.556,1.694-2.006,5.546-3.547,5.172s.626-6.4,1.96-8.826c-1.939-.006-4.33-.3-5.028-2.114-.157-.406-.281-.932-.707-1.025-.349-.076-.659.206-.959.4a3.565,3.565,0,0,1-4.3-1.185c-.249-.277-.538-.6-.908-.572a1.261,1.261,0,0,0-.608.3c-2.235,1.587-8.173,1.508-8.152-1.283-1.955.994-3.222-1.427-3.1-3.083s1.357-4.423,4.052-4.354c-.135-2.036,1.464-3.312,3.083-4.554a10.131,10.131,0,0,1,5.723-1.888c3.218-.146,6.881,1.181,7.979,4.21a1.031,1.031,0,0,0,.359.582.988.988,0,0,0,.752-.007,7.8,7.8,0,0,1,7.143,1.418,5.415,5.415,0,0,1,1.066,6.859,4.043,4.043,0,0,1,2.6,4.6,9.993,9.993,0,0,1-2.858,4.966,3.813,3.813,0,0,1,1.824,5.328,6,6,0,0,1-5.819,2.589,3.515,3.515,0,0,0-2.225-4.514" transform="translate(-176.624 -160.965)"/><path d="M244.385,232.382a3.578,3.578,0,0,0-.9-3.007,6.483,6.483,0,0,0-2.617-1.626c-.257-.1-.605-.157-.758.071a.536.536,0,0,0,.054.552c.37.627,1.146.919,1.543,1.529a6.452,6.452,0,0,1,.357.739,3.225,3.225,0,0,0,2.316,1.742" transform="translate(-188.242 -105.771)"/><path class="i" d="M263.342,211.964a109.634,109.634,0,0,1-4.64-13.739c-1.878,9.542-1.257,26.249-2.84,27.675s-17.408,10.443-17.408,10.443h0c7.475-2.347,16.6-5.713,19.161-8.8,1.444-1.746,3.6-8.2,5.727-15.575Z" transform="translate(-189.572 -130.132)"/><path class="m" d="M2.35,0H41.442a2.352,2.352,0,0,1,2.352,2.352V43.061a2.352,2.352,0,0,1-2.352,2.352H2.352A2.352,2.352,0,0,1,0,43.061V2.352A2.352,2.352,0,0,1,2.352,0Z" transform="matrix(-0.598, -0.802, 0.802, -0.598, 29.504, 148.989)"/><g transform="translate(45.044 120.522)"><path class="j" d="M254.352,227.041s-3.066.958-4.65,1.416c-1.033.3-5.939-.227-8.824.433a6.526,6.526,0,0,0-3.741,1.919,2.7,2.7,0,0,0,.219,3.806c.336.23.79.427.83.831a1.554,1.554,0,0,1-.143.6,1.587,1.587,0,0,0,2.308,1.85,2.682,2.682,0,0,0,2.486,2.565,2.136,2.136,0,0,1,.778-1.926,4.263,4.263,0,0,1,2.029-.418,5.459,5.459,0,0,0,3.271-1.557c.621-.621,1.081-1.383,1.648-2.053a8.289,8.289,0,0,1,4.552-2.728" transform="translate(-236.269 -226.807)"/><path class="n" d="M254.377,226.926c-1.543.482-3.109,1.094-4.691,1.426a10.958,10.958,0,0,1-2.33.077c-1.145-.013-2.291-.032-3.436.011a10.906,10.906,0,0,0-6.092,1.59,3.18,3.18,0,0,0-.8,4.639c.169.166.4.26.565.419.474.449.334.728.261,1.261a1.892,1.892,0,0,0,.285,1.278,1.86,1.86,0,0,0,2.415.568l-.344-.2a2.952,2.952,0,0,0,2.714,2.793.23.23,0,0,0,.228-.228,1.759,1.759,0,0,1,1.323-1.992c.518-.124,1.073-.082,1.6-.168a5.707,5.707,0,0,0,2.987-1.48c.917-.867,1.509-2.009,2.44-2.868a8.254,8.254,0,0,1,3.763-1.953c.286-.067.164-.507-.121-.44a8.743,8.743,0,0,0-3.644,1.788c-1.188.992-1.864,2.441-3.061,3.408a5.227,5.227,0,0,1-2.206,1.053,19.21,19.21,0,0,0-2.127.284,2.237,2.237,0,0,0-1.408,2.368l.228-.228A2.485,2.485,0,0,1,240.665,238a.232.232,0,0,0-.344-.2c-1.323.626-2.164-.539-1.921-1.739.085-.418.159-.663-.126-1.016-.352-.436-.922-.56-1.219-1.078a2.554,2.554,0,0,1-.142-1.99c.825-2.647,4.7-3,7.008-3.082,1.182-.044,2.364-.022,3.545-.01a11.539,11.539,0,0,0,2.208-.067,43.2,43.2,0,0,0,4.824-1.453c.28-.087.16-.529-.121-.441Z" transform="translate(-236.354 -226.913)"/></g><path class="i" d="M289.966,202.03c-1.32,3.777-8.324,37.035-8.324,37.035a63.607,63.607,0,0,0-11.16,3.957c-3.34,1.734-26.624,16.195-26.624,16.195l2.317,5.453S287.621,249.981,289.438,249,307.9,206.016,307.9,198.522a17.289,17.289,0,0,0-3.573-8.933" transform="translate(-185.1 -137.278)"/></g><path class="m" d="M1.985,0H35a1.986,1.986,0,0,1,1.986,1.986V36.368A1.986,1.986,0,0,1,35,38.355H1.986A1.986,1.986,0,0,1,0,36.368V1.985A1.986,1.986,0,0,1,1.985,0Z" transform="translate(195 132.623) rotate(-90)"/><path class="m" d="M1.985,0H35a1.986,1.986,0,0,1,1.986,1.986V36.368A1.986,1.986,0,0,1,35,38.355H1.986A1.986,1.986,0,0,1,0,36.368V1.985A1.986,1.986,0,0,1,1.985,0Z" transform="translate(269 132.623) rotate(-90)"/><path class="m" d="M1.985,0H35a1.986,1.986,0,0,1,1.986,1.986V36.368A1.986,1.986,0,0,1,35,38.355H1.986A1.986,1.986,0,0,1,0,36.368V1.985A1.986,1.986,0,0,1,1.985,0Z" transform="translate(195 194.267) rotate(-90)"/><path class="m" d="M1.985,0H35a1.986,1.986,0,0,1,1.986,1.986V36.368A1.986,1.986,0,0,1,35,38.355H1.986A1.986,1.986,0,0,1,0,36.368V1.985A1.986,1.986,0,0,1,1.985,0Z" transform="translate(269 194.267) rotate(-90)"/><path class="m" d="M1.985,0H35a1.986,1.986,0,0,1,1.986,1.986V36.368A1.986,1.986,0,0,1,35,38.355H1.986A1.986,1.986,0,0,1,0,36.368V1.985A1.986,1.986,0,0,1,1.985,0Z" transform="translate(195 256.057) rotate(-90)"/><path class="m" d="M1.985,0H35a1.986,1.986,0,0,1,1.986,1.986V36.368A1.986,1.986,0,0,1,35,38.355H1.986A1.986,1.986,0,0,1,0,36.368V1.985A1.986,1.986,0,0,1,1.985,0Z" transform="translate(268.753 255.911) rotate(-90)"/><g transform="translate(202.134 102.304)"><path class="e" d="M158.91,74.053l-.256-.841a1.828,1.828,0,0,0-3.461,0l-.256.841a4.726,4.726,0,0,0-.132,2.19,2.06,2.06,0,0,0,1.061,1.436l-.286,6.4a1.261,1.261,0,0,0,.319.98,1.391,1.391,0,0,0,1.966.088q.046-.042.088-.088a1.244,1.244,0,0,0,.319-.954l-.288-6.428a2.06,2.06,0,0,0,1.059-1.435,4.727,4.727,0,0,0-.132-2.19Zm-.653,2.052a1.263,1.263,0,0,1-.826.951.4.4,0,0,0-.258.391l.3,6.723a.461.461,0,0,1-.119.361.615.615,0,0,1-.866,0,.478.478,0,0,1-.117-.387l.3-6.7a.4.4,0,0,0-.258-.391,1.263,1.263,0,0,1-.826-.951,3.928,3.928,0,0,1,.11-1.818l.256-.842a1.032,1.032,0,0,1,1.937,0l.256.842a3.931,3.931,0,0,1,.109,1.818Z" transform="translate(-141.99 -66.001)"/><path class="e" d="M153.215,71.974a.4.4,0,0,0-.4.4v3.419l-1.078,1.078a.4.4,0,0,0-.117.3l.349,6.969a.543.543,0,0,1-.151.406.561.561,0,0,1-.793,0l0,0a.543.543,0,0,1-.151-.406l.351-6.969a.4.4,0,0,0-.116-.3l-1.078-1.078v-3.42a.4.4,0,0,0-.8,0v3.584a.4.4,0,0,0,.117.282l1.07,1.07-.34,6.793a1.345,1.345,0,1,0,2.687.131q0-.065,0-.131l-.34-6.793,1.07-1.07a.4.4,0,0,0,.117-.282V72.372A.4.4,0,0,0,153.215,71.974Z" transform="translate(-142.464 -66.001)"/><path class="e" d="M150.732,71.974a.4.4,0,0,0-.4.4v3.186a.4.4,0,1,0,.8,0V72.372a.4.4,0,0,0-.4-.4Z" transform="translate(-142.369 -66.001)"/><path class="e" d="M151.832,71.974a.4.4,0,0,0-.4.4v3.186a.4.4,0,1,0,.8,0V72.372A.4.4,0,0,0,151.832,71.974Z" transform="translate(-142.274 -66.001)"/><path class="e" d="M154.946,66.474A11.946,11.946,0,1,0,166.893,78.42a11.946,11.946,0,0,0-11.946-11.946Zm0,23.1A11.15,11.15,0,1,1,166.1,78.42a11.15,11.15,0,0,1-11.15,11.15Z" transform="translate(-143 -66.474)"/><path class="e" d="M155.394,84.385a.4.4,0,0,0-.434-.358l-.015,0h0a7.31,7.31,0,0,1-1.688,0,.4.4,0,0,0-.093.791,8.062,8.062,0,0,0,1.872,0,.4.4,0,0,0,.357-.435Z" transform="translate(-142.156 -64.964)"/><path class="e" d="M159.7,72.76a.4.4,0,0,0-.561-.049h0a.4.4,0,0,0-.048.561,7.168,7.168,0,0,1-.422,9.7.4.4,0,1,0,.562.565A7.964,7.964,0,0,0,159.7,72.76Z" transform="translate(-141.662 -65.945)"/><g transform="translate(8.88 3.983)"><path class="e" d="M151.543,71.32Z" transform="translate(-151.144 -70.04)"/><path class="e" d="M156.122,70.363a8.035,8.035,0,0,0-4.687.288.4.4,0,1,0,.279.745,7.235,7.235,0,0,1,4.221-.259.4.4,0,1,0,.187-.774Z" transform="translate(-151.176 -70.142)"/></g><path class="e" d="M149.554,82.916a7.167,7.167,0,0,1-.72-9.274.4.4,0,1,0-.637-.479l-.007.009a7.964,7.964,0,0,0,.8,10.307.4.4,0,0,0,.564-.564Z" transform="translate(-142.685 -65.912)"/></g><g transform="translate(275.667 104.303)"><path class="e" d="M212.993,74.9h-.859a.424.424,0,0,0,0,.848h.859a.424.424,0,0,0,0-.848Z" transform="translate(-195.826 -67.668)"/><path class="e" d="M213.494,78.271a.813.813,0,0,0-.656-.337h-9.215a.814.814,0,0,0-.656.337.905.905,0,0,0-.151.752l.215.9a.841.841,0,0,0,.808.664h8.785a.841.841,0,0,0,.808-.664l.215-.9A.906.906,0,0,0,213.494,78.271Zm-.63.546-.215.9a.027.027,0,0,1-.026.021h-8.785a.027.027,0,0,1-.026-.021l-.215-.9a.027.027,0,0,1,0-.024.024.024,0,0,1,.021-.01h9.215a.024.024,0,0,1,.021.01.027.027,0,0,1,0,.025Z" transform="translate(-196.221 -67.534)"/><path class="e" d="M219.254,76.057a1.33,1.33,0,0,0,0-2.657h-.43a1.286,1.286,0,0,0-1.246,1.117l-1.075-3.11a1.7,1.7,0,0,0-1.591-1.172h-3.065l-.227-1.193a1.284,1.284,0,0,0-1.238-1.068h-3.749a1.284,1.284,0,0,0-1.238,1.068l-.227,1.193H202.1a1.7,1.7,0,0,0-1.591,1.172l-1.075,3.11a1.286,1.286,0,0,0-1.246-1.117h-.43a1.33,1.33,0,0,0,0,2.657h.43a1.2,1.2,0,0,0,.553-.135l-.921,1.211a2.315,2.315,0,0,0-.465,1.395v8.409a.856.856,0,0,0,.833.876h1.289a.856.856,0,0,0,.833-.876V85.1H216.7v1.837a.856.856,0,0,0,.833.876h1.289a.856.856,0,0,0,.833-.876V78.528a2.315,2.315,0,0,0-.465-1.395l-.921-1.211a1.2,1.2,0,0,0,.553.135Zm-21.062-.848h-.43a.481.481,0,0,1,0-.961h.43a.481.481,0,0,1,0,.961Zm7.994-6a.464.464,0,0,1,.448-.386h3.749a.464.464,0,0,1,.448.386l.2,1.027h-5.034Zm-6.678,17.73a.028.028,0,0,1-.027.028h-1.289a.028.028,0,0,1-.027-.028v-2.1a1.621,1.621,0,0,0,.887.265h.457Zm13.755-2.685h-9.51V83.32a.028.028,0,0,1,.027-.028h9.456a.028.028,0,0,1,.027.028v.933Zm5.588,2.685a.028.028,0,0,1-.027.028h-1.289a.028.028,0,0,1-.027-.028V85.1h.457a1.621,1.621,0,0,0,.887-.265Zm-.288-9.274a1.437,1.437,0,0,1,.288.865V83.32a.911.911,0,0,1-.887.933h-3.9V83.32a.856.856,0,0,0-.833-.876h-9.456a.856.856,0,0,0-.833.876v.933h-3.895a.911.911,0,0,1-.887-.933V78.528a1.436,1.436,0,0,1,.288-.865l1.222-1.606h11.411a.424.424,0,0,0,0-.848h-11.03l1.214-3.512a.893.893,0,0,1,.833-.614h12.808a.893.893,0,0,1,.833.614l1.214,3.512h-1.574a.424.424,0,0,0,0,.848h1.955Zm-.2-2.934a.47.47,0,0,1,.457-.48h.43a.481.481,0,0,1,0,.961h-.43a.47.47,0,0,1-.457-.481Z" transform="translate(-196.499 -67.974)"/><path class="e" d="M200.63,80.965a.877.877,0,1,0,.833.876.856.856,0,0,0-.833-.876Z" transform="translate(-196.357 -67.4)"/><path class="e" d="M215.448,80.965a.877.877,0,1,0,.833.876A.856.856,0,0,0,215.448,80.965Z" transform="translate(-195.702 -67.4)"/><path class="e" d="M200.454,77.5a1.556,1.556,0,1,0,1.478,1.555A1.519,1.519,0,0,0,200.454,77.5Zm0,2.261a.707.707,0,1,1,.672-.707.691.691,0,0,1-.672.707Z" transform="translate(-196.396 -67.553)"/><path class="e" d="M215.684,77.5a1.556,1.556,0,1,0,1.478,1.555A1.519,1.519,0,0,0,215.684,77.5Zm0,2.261a.707.707,0,1,1,.672-.707.691.691,0,0,1-.672.707Z" transform="translate(-195.723 -67.553)"/></g><g transform="translate(202.029 163.843)"><path class="e" d="M143,123.567a2.589,2.589,0,0,1,1.037-1.558,4,4,0,0,1,4.433-.039l.139.093c.006-.084.014-.148.015-.213q0-4.183,0-8.366c0-.409.113-.548.511-.615l8.057-1.347a1.106,1.106,0,0,0,.151-.048h.328a.641.641,0,0,1,.334.637c-.008,2.9-.023,5.8,0,8.693a2.492,2.492,0,0,1-1.631,2.489,3.756,3.756,0,0,1-4-.418,2.2,2.2,0,0,1,.134-3.7,3.982,3.982,0,0,1,4.412-.007l.12.08v-3.934l-7.478,1.246v6.992a2.488,2.488,0,0,1-1.751,2.614,3.825,3.825,0,0,1-3.971-.55,2.167,2.167,0,0,1-.8-1.29.573.573,0,0,0-.044-.1Zm6.574-7.961,7.476-1.246V112.5l-7.476,1.247Zm-3.285,9.932a2.841,2.841,0,0,0,1.731-.56,1.277,1.277,0,0,0-.006-2.171,3.006,3.006,0,0,0-3.464,0,1.282,1.282,0,0,0,.026,2.2,2.907,2.907,0,0,0,1.713.534Zm8.547-6.094a2.9,2.9,0,0,0-1.953.634,1.244,1.244,0,0,0-.019,1.991,2.957,2.957,0,0,0,3.747-.04,1.222,1.222,0,0,0,0-1.893A2.637,2.637,0,0,0,154.836,119.444Z" transform="translate(-143 -111.474)"/><path class="e" d="M166.015,131.465c-.026.038-.052.076-.079.113a.466.466,0,0,1-.856-.251c-.007-.453,0-.906,0-1.359a3.749,3.749,0,0,0-3.805-3.8h-.882v.275c0,1.828,0,3.656,0,5.483a2.331,2.331,0,0,1-.933,1.9.478.478,0,0,1-.691-.025.456.456,0,0,1,.081-.681,1.33,1.33,0,0,0-.294-2.368,2.937,2.937,0,0,0-2.892,0,2.084,2.084,0,0,0-.531.416,1.194,1.194,0,0,0,0,1.724c.085.091.183.169.273.257a.462.462,0,0,1,.047.652.474.474,0,0,1-.655.055,2.208,2.208,0,0,1-.123-3.567,3.973,3.973,0,0,1,4.538-.248c.065.043.13.087.238.16v-8.539c0-.428.157-.649.463-.653s.475.222.475.642v.764c.128,0,.249,0,.369,0a5.363,5.363,0,0,1,2.254.317,4.632,4.632,0,0,1,2.959,3.771.89.89,0,0,0,.041.131Zm-.943-4.369c0-.126,0-.181,0-.235a3.849,3.849,0,0,0-4.662-3.474v1.864a4.963,4.963,0,0,1,4.662,1.844Z" transform="translate(-142.016 -110.607)"/><path class="e" d="M156.734,133.552l-.112-.078a.443.443,0,0,1-.191-.527.464.464,0,0,1,.887,0,.444.444,0,0,1-.191.527c-.037.027-.074.052-.111.078Z" transform="translate(-141.782 -109.553)"/></g><g transform="translate(276.159 166.62)"><path class="e" d="M219.1,131.449h-.4V121.193a3.191,3.191,0,0,0,1.516-2.7.339.339,0,0,0-.047-.171l-2.814-4.8a1.121,1.121,0,0,0-.966-.547H199.827a1.121,1.121,0,0,0-.966.547l-2.814,4.8a.34.34,0,0,0-.047.171,3.191,3.191,0,0,0,1.516,2.7V131.45h-.4a.346.346,0,1,0,0,.691H219.1a.346.346,0,1,0,0-.691Zm-22.364-12.611h1.137a.346.346,0,1,0,0-.691h-.9l2.511-4.284a.406.406,0,0,1,.35-.2h16.557a.406.406,0,0,1,.35.2l2.511,4.284h-.905a.346.346,0,1,0,0,.691h1.137a2.593,2.593,0,0,1-5.117,0h2.463a.346.346,0,1,0,0-.691H199.387a.346.346,0,1,0,0,.691h2.463a2.593,2.593,0,0,1-5.117,0Zm16.867,0a2.593,2.593,0,0,1-5.116,0Zm-5.875,0a2.593,2.593,0,0,1-5.116,0Zm8.364,12.611h-3.839v-1.156h3.839Zm0-1.848h-3.839v-6.329h3.839Zm1.9,1.848H216.8v-8.522a.35.35,0,0,0-.355-.346H211.9a.35.35,0,0,0-.355.346v8.522H198.225v-9.921a3.352,3.352,0,0,0,1.067.174,3.306,3.306,0,0,0,2.938-1.761,3.331,3.331,0,0,0,5.875,0,3.331,3.331,0,0,0,5.875,0,3.306,3.306,0,0,0,2.938,1.761,3.355,3.355,0,0,0,1.067-.174Z" transform="translate(-196 -112.974)"/><path class="e" d="M209.971,122.5H199.736a.35.35,0,0,0-.355.346v7.021a.35.35,0,0,0,.355.346h10.234a.35.35,0,0,0,.355-.346v-7.021A.35.35,0,0,0,209.971,122.5Zm-.355,7.021h-9.525v-6.329h9.525Z" transform="translate(-195.97 -112.891)"/></g><g transform="translate(203 226.068)"><path class="e" d="M148.429,161.887a.458.458,0,1,0,.458.458A.458.458,0,0,0,148.429,161.887Z" transform="translate(-143.396 -156.124)"/><path class="e" d="M152.519,170.034h-1.372v-1.372a.458.458,0,1,0-.915,0v1.372H148.86a.458.458,0,1,0,0,.915h1.372v1.372a.458.458,0,1,0,.915,0v-1.372h1.372a.458.458,0,1,0,0-.915Z" transform="translate(-143.37 -155.718)"/><path class="e" d="M165.168,171.2a3.657,3.657,0,0,0-5-1.339l-1.858,1.073v-3.972a2.3,2.3,0,0,0-.458-1.372l-2.287-3.049v-1.3a1.374,1.374,0,0,0,.915-1.293v-2.1a1.373,1.373,0,0,0-1.372-1.372h-8.233a1.373,1.373,0,0,0-1.372,1.372v2.1a1.375,1.375,0,0,0,.915,1.294v1.3l-2.287,3.049a2.3,2.3,0,0,0-.458,1.372v8.858a2.29,2.29,0,0,0,2.287,2.287h7.351a3.655,3.655,0,0,0,4.971,1.293l5.546-3.2a3.662,3.662,0,0,0,1.34-5Zm-18.749-13.356a.458.458,0,0,1,.458-.458h8.233a.458.458,0,0,1,.458.458v2.1a.458.458,0,0,1-.458.458h-8.233a.458.458,0,0,1-.458-.458v-2.1Zm-1.555,8.294,2.378-3.171a.458.458,0,0,0,.091-.274v-1.372h7.318v.915h-4.116a.458.458,0,1,0,0,.915h4.345l2.241,2.988a1.384,1.384,0,0,1,.265.671H144.6a1.385,1.385,0,0,1,.265-.671Zm1.1,11.054a1.373,1.373,0,0,1-1.372-1.372v-.462h8.31a3.666,3.666,0,0,0,.022,1.834h-6.96Zm7.3-2.744h-8.669v-6.724H157.4v3.738l-2.773,1.6a3.632,3.632,0,0,0-1.366,1.385Zm4.567,4.16a2.744,2.744,0,0,1-2.744-4.753l2.483-1.433,2.744,4.753Zm5.545-3.2-2.271,1.311-2.744-4.753,2.271-1.311a2.744,2.744,0,1,1,2.744,4.753Z" transform="translate(-143.674 -156.473)"/></g><g transform="translate(275.435 224.92)"><path class="e" d="M202.339,171.135a.5.5,0,0,0-.712.06c-.071.084-.14.169-.2.252a.505.505,0,0,0,.8.623c.057-.073.118-.148.181-.222A.505.505,0,0,0,202.339,171.135Z" transform="translate(-196.239 -155.156)"/><path class="e" d="M208.026,158.9c.087,0,.172,0,.255.008h.034a.505.505,0,0,0,.033-1.009c-.1-.007-.213-.011-.321-.011a.505.505,0,0,0,0,1.011Z" transform="translate(-195.902 -155.87)"/><path class="e" d="M220.245,179.214h-.758V177.7A10.854,10.854,0,0,0,214,168.259a12.209,12.209,0,0,0,.535-2.276c.027-.164.056-.3.089-.462s.077-.367.124-.641h.351a.505.505,0,0,0,.505-.505,2,2,0,0,0-.6-1.412l0-.034c.03-.261.039-.344.041-.386a5.27,5.27,0,0,0-.145-1.765,6.779,6.779,0,0,0-2.4-3.54,6.582,6.582,0,0,0-7.757,0,6.78,6.78,0,0,0-2.4,3.54,5.2,5.2,0,0,0-.147,1.723c0,.05.015.175.04.429l0,.037a2,2,0,0,0-.593,1.409.505.505,0,0,0,.505.505h.351c.047.27.087.464.125.642.033.159.062.3.089.461a12.216,12.216,0,0,0,.534,2.276,10.855,10.855,0,0,0-5.487,9.439v1.516h-.758a.505.505,0,1,0,0,1.01h23.24a.505.505,0,1,0,0-1.01Zm-16.934-18.148a5.5,5.5,0,0,1,10.629,0,3.962,3.962,0,0,1,.113,1.2,6.668,6.668,0,0,0-1-.424,3.29,3.29,0,0,0-.134-.636,4.584,4.584,0,0,0-2.41-2.81.505.505,0,1,0-.42.919,3.587,3.587,0,0,1,1.87,2.206l.007.022a15.993,15.993,0,0,0-3.346-.333,12.261,12.261,0,0,0-5.427,1.055A3.964,3.964,0,0,1,203.311,161.067Zm-.5,2.8a3.182,3.182,0,0,1,1.537-1.017,14.725,14.725,0,0,1,8.554,0,3.182,3.182,0,0,1,1.537,1.017Zm10.91,1.011c-.032.17-.06.307-.087.435-.034.164-.066.318-.1.5-.424,2.577-.692,2.747-1.818,3.464-.188.12-.4.255-.637.415a4.653,4.653,0,0,1-4.913,0c-.237-.16-.449-.3-.637-.415-1.126-.717-1.394-.887-1.818-3.464-.03-.185-.063-.34-.1-.5-.027-.128-.055-.265-.087-.436Zm.966,14.334H202.563v-2.021h5.557V178.2a.505.505,0,0,0,1.01,0v-1.011h5.557v2.021Zm-11.19-3.032,1.263-1.01h3.359v1.01Zm5.633,0v-1.01h3.359l1.263,1.01Zm9.346,3.031H215.7v-2.526a.5.5,0,0,0-.184-.389l0,0-.024-.02-2.507-2a.505.505,0,0,0-.316-.111h-8.083a.506.506,0,0,0-.316.111l-2.526,2.021,0,0-.013.011-.021.019-.012.013-.019.021-.011.013-.018.024-.009.012a.4.4,0,0,0-.021.035l-.009.018-.01.021-.009.021-.007.019-.007.022-.006.024-.006.031,0,.029,0,.018v2.566h-2.779V177.7a9.816,9.816,0,0,1,4.967-8.557,3.752,3.752,0,0,0,.839.727,8.91,8.91,0,0,0-1.409.907.505.505,0,1,0,.625.794,7.9,7.9,0,0,1,1.278-.82l.481-.247.062.042.031.02a5.925,5.925,0,0,0,2.976.85h0a5.925,5.925,0,0,0,2.978-.85l.031-.019c.231-.156.442-.29.628-.409a4.925,4.925,0,0,0,1.248-.994,9.816,9.816,0,0,1,4.967,8.557Z" transform="translate(-196.501 -155.974)"/></g><text class="o" transform="translate(203 143.611)"><tspan class="p" x="0" y="0">F</tspan><tspan y="0">ood</tspan></text><text class="o" transform="translate(279 144.611)"><tspan class="q" x="0" y="0">T</tspan><tspan y="0">axi</tspan></text><text class="o" transform="translate(201 204.254)"><tspan x="0" y="0">Music</tspan></text><text class="o" transform="translate(270 204.254)"><tspan x="0" y="0">G</tspan><tspan class="r" y="0">r</tspan><tspan y="0">oce</tspan><tspan class="s" y="0">r</tspan><tspan y="0">y</tspan></text><text class="o" transform="translate(192.417 265.898)"><tspan x="0" y="0">Medecine</tspan></text><text class="o" transform="translate(273.152 265.898)"><tspan class="r" x="0" y="0">C</tspan><tspan y="0">ourier</tspan></text><g transform="translate(434 330.068)"><path class="b" d="M31.336,286.6c3.986,19.628,11.182,29.98,17.4,29.239l-14.6-71.88C32.9,248.436,27.728,268.839,31.336,286.6Z" transform="translate(-15.463 -243.061)"/><path class="b" d="M47.189,281.209c-6.087,15.53-5.734,26.023-1.05,28.316l22.29-56.869C65.537,255.226,52.7,267.157,47.189,281.209Z" transform="translate(-8.587 -238.295)"/><path class="b" d="M20.681,256.523s-.013.246-.026.7l23.479,49.6c.1-.038.2-.075.3-.122,4.358-2.063,4.16-11.614-2.4-25.472S20.681,256.523,20.681,256.523Z" transform="translate(-20.628 -236.176)"/><path class="t" d="M81.514,308.534c0,2.114-13.411,3.821-29.953,3.815s-29.951-1.725-29.95-3.839,13.411-3.822,29.953-3.815S81.516,306.421,81.514,308.534Z" transform="translate(-20.103 -209.771)"/><path class="b" d="M32.96,243.38s-.1.316-.258.9l14.6,71.881c.143-.017.286-.033.429-.063,6.314-1.282,9.115-13.74,5.037-33.82S32.96,243.38,32.96,243.38Z" transform="translate(-14.024 -243.38)"/><g transform="translate(16.702 12.972)"><path class="c" d="M44.755,295.314q-1.494-7.251-2.967-14.507-2.963-14.508-6.114-28.976a.085.085,0,1,0-.167.034q1.863,9.83,3.8,19.644a39.949,39.949,0,0,0-7.176-4.674c-.13-.063-.265.141-.157.237a41.078,41.078,0,0,0,7.44,4.971c.585,2.963,1.164,5.928,1.762,8.889q1.464,7.257,2.926,14.515c.963,4.811,1.654,9.784,3.006,14.5a.271.271,0,0,0,.531-.108C47.048,304.968,45.744,300.119,44.755,295.314Z" transform="translate(-31.145 -251.759)"/><path class="c" d="M43.566,278.819a83.52,83.52,0,0,0-12-7.91.093.093,0,0,0-.1.155,83.5,83.5,0,0,0,11.962,7.961.124.124,0,1,0,.137-.206Z" transform="translate(-31.426 -241.271)"/><path class="c" d="M44.117,264.334c-1.147,1.53-2.231,3.107-3.332,4.672a24.446,24.446,0,0,0-2.729,4.388.141.141,0,0,0,.225.149,24.412,24.412,0,0,0,2.976-4.225c1.011-1.624,2.04-3.236,3-4.89a.085.085,0,0,0-.137-.1l0,0,0,0Z" transform="translate(-27.795 -244.888)"/><path class="c" d="M46.207,276.239a73.062,73.062,0,0,0-5.555,8.231.155.155,0,1,0,.258.171,73.113,73.113,0,0,0,5.413-8.325.07.07,0,0,0-.116-.077Z" transform="translate(-26.383 -238.358)"/><path class="c" d="M45.083,287.8a65.4,65.4,0,0,0-9.867-6.471.1.1,0,0,0-.111.168,65.422,65.422,0,0,0,9.807,6.561.155.155,0,0,0,.17-.258Z" transform="translate(-29.431 -235.56)"/></g><path class="b" d="M67.771,252.325s-.21.178-.588.513L44.894,309.706c.108.053.215.107.329.151,5,1.958,12.586-5.489,18.813-21.376S67.771,252.325,67.771,252.325Z" transform="translate(-7.341 -238.477)"/><g transform="translate(36.198 23.917)"><path class="c" d="M50.065,293.436q2.234-5.747,4.484-11.487,4.487-11.487,8.825-23.03a.071.071,0,0,0-.131-.052q-3.141,7.716-6.22,15.457a33.272,33.272,0,0,0-2.906-6.513.124.124,0,0,0-.217.095,34.2,34.2,0,0,0,2.955,6.841c-.931,2.338-1.866,4.672-2.787,7.013q-2.256,5.738-4.516,11.474c-1.5,3.8-3.267,7.591-4.452,11.5a.226.226,0,0,0,.421.164C47.3,301.226,48.583,297.244,50.065,293.436Z" transform="translate(-43.433 -258.829)"/><path class="c" d="M51.149,281.933a69.544,69.544,0,0,0-4.813-10.955.077.077,0,0,0-.141.062,69.543,69.543,0,0,0,4.766,10.976.1.1,0,0,0,.188-.083Z" transform="translate(-42.828 -252.192)"/><path class="c" d="M59.534,271.087c-1.495.552-2.965,1.164-4.442,1.76a20.342,20.342,0,0,0-3.893,1.836.117.117,0,0,0,.09.206,20.315,20.315,0,0,0,3.992-1.61c1.441-.678,2.89-1.341,4.31-2.063a.071.071,0,1,0-.057-.13h0Z" transform="translate(-40.106 -252.115)"/><path class="c" d="M55.485,280.436a60.9,60.9,0,0,0-7.605,3.245.129.129,0,0,0,.1.237,60.877,60.877,0,0,0,7.55-3.375.058.058,0,0,0-.046-.106Z" transform="translate(-41.943 -246.987)"/><path class="c" d="M48.153,288.9a54.475,54.475,0,0,0-3.975-8.986.084.084,0,0,0-.155.064v0A54.479,54.479,0,0,0,47.916,289a.129.129,0,0,0,.236-.1Z" transform="translate(-44.019 -247.297)"/></g><path class="b" d="M26.263,288.454C32.675,302,39.756,308.232,44.142,306.578l-23.479-49.6C20.563,260.448,20.462,276.2,26.263,288.454Z" transform="translate(-20.637 -235.928)"/><g transform="translate(3.935 29.376)"><path class="c" d="M37.686,292.354q-2.384-5-4.754-10.007-4.751-10.009-9.632-19.955a.064.064,0,1,0-.115.054h0q3.113,6.807,6.282,13.588a29.9,29.9,0,0,0-6.051-2.11.111.111,0,0,0-.072.2,30.727,30.727,0,0,0,6.3,2.279c.956,2.048,1.908,4.1,2.872,6.142q2.364,5.01,4.726,10.02c1.561,3.322,2.954,6.812,4.782,9.994a.2.2,0,0,0,.366-.174C41.081,298.956,39.266,295.667,37.686,292.354Z" transform="translate(-23.179 -262.355)"/><path class="c" d="M34.784,280.358a62.5,62.5,0,0,0-10.131-3.6.07.07,0,0,0-.046.131h0a62.523,62.523,0,0,0,10.116,3.641.093.093,0,1,0,.063-.175h0Z" transform="translate(-22.42 -254.461)"/><path class="c" d="M32.017,270.122c-.559,1.317-1.064,2.657-1.583,3.99a18.283,18.283,0,0,0-1.2,3.677.105.105,0,0,0,.19.068,18.258,18.258,0,0,0,1.405-3.6c.444-1.36.9-2.716,1.3-4.09a.064.064,0,1,0-.12-.043Z" transform="translate(-19.858 -258.123)"/><path class="c" d="M35.718,278.364a54.7,54.7,0,0,0-2.561,6.975.116.116,0,1,0,.218.079h0a54.7,54.7,0,0,0,2.441-7.017.052.052,0,0,0-.1-.038v0Z" transform="translate(-17.713 -253.6)"/><path class="c" d="M37.494,286.609a48.956,48.956,0,0,0-8.327-2.933.075.075,0,0,0-.051.141,48.959,48.959,0,0,0,8.3,3.01.116.116,0,0,0,.077-.218Z" transform="translate(-19.948 -250.67)"/></g><path d="M26.757,286.507v18.458a14.587,14.587,0,0,0,14.587,14.587h14.1a29.708,29.708,0,0,0,3.086-.886,14.5,14.5,0,0,0,2.052-.6c.012,0,.044-.011.053-.012l0,0a14.583,14.583,0,0,0,9.4-13.623V286.507Z" transform="translate(-17.283 -219.741)"/><path class="c" d="M26.757,286.507v18.458a14.587,14.587,0,0,0,14.587,14.587h14.1a29.708,29.708,0,0,0,3.086-.886,14.5,14.5,0,0,0,2.052-.6c.012,0,.044-.011.053-.012l0,0a14.583,14.583,0,0,0,9.4-13.623V286.507Z" transform="translate(-17.283 -219.741)"/></g><g transform="translate(-30.412 330.068)"><path class="b" d="M31.336,286.6c3.986,19.628,11.182,29.98,17.4,29.239l-14.6-71.88C32.9,248.436,27.728,268.839,31.336,286.6Z" transform="translate(-15.463 -243.061)"/><path class="b" d="M47.189,281.209c-6.087,15.53-5.734,26.023-1.05,28.316l22.29-56.869C65.537,255.226,52.7,267.157,47.189,281.209Z" transform="translate(-8.587 -238.295)"/><path class="b" d="M20.681,256.523s-.013.246-.026.7l23.479,49.6c.1-.038.2-.075.3-.122,4.358-2.063,4.16-11.614-2.4-25.472S20.681,256.523,20.681,256.523Z" transform="translate(-20.628 -236.176)"/><path class="t" d="M81.514,308.534c0,2.114-13.411,3.821-29.953,3.815s-29.951-1.725-29.95-3.839,13.411-3.822,29.953-3.815S81.516,306.421,81.514,308.534Z" transform="translate(-20.103 -209.771)"/><path class="b" d="M32.96,243.38s-.1.316-.258.9l14.6,71.881c.143-.017.286-.033.429-.063,6.314-1.282,9.115-13.74,5.037-33.82S32.96,243.38,32.96,243.38Z" transform="translate(-14.024 -243.38)"/><g transform="translate(16.702 12.972)"><path class="c" d="M44.755,295.314q-1.494-7.251-2.967-14.507-2.963-14.508-6.114-28.976a.085.085,0,1,0-.167.034q1.863,9.83,3.8,19.644a39.949,39.949,0,0,0-7.176-4.674c-.13-.063-.265.141-.157.237a41.078,41.078,0,0,0,7.44,4.971c.585,2.963,1.164,5.928,1.762,8.889q1.464,7.257,2.926,14.515c.963,4.811,1.654,9.784,3.006,14.5a.271.271,0,0,0,.531-.108C47.048,304.968,45.744,300.119,44.755,295.314Z" transform="translate(-31.145 -251.759)"/><path class="c" d="M43.566,278.819a83.52,83.52,0,0,0-12-7.91.093.093,0,0,0-.1.155,83.5,83.5,0,0,0,11.962,7.961.124.124,0,1,0,.137-.206Z" transform="translate(-31.426 -241.271)"/><path class="c" d="M44.117,264.334c-1.147,1.53-2.231,3.107-3.332,4.672a24.446,24.446,0,0,0-2.729,4.388.141.141,0,0,0,.225.149,24.412,24.412,0,0,0,2.976-4.225c1.011-1.624,2.04-3.236,3-4.89a.085.085,0,0,0-.137-.1l0,0,0,0Z" transform="translate(-27.795 -244.888)"/><path class="c" d="M46.207,276.239a73.062,73.062,0,0,0-5.555,8.231.155.155,0,1,0,.258.171,73.113,73.113,0,0,0,5.413-8.325.07.07,0,0,0-.116-.077Z" transform="translate(-26.383 -238.358)"/><path class="c" d="M45.083,287.8a65.4,65.4,0,0,0-9.867-6.471.1.1,0,0,0-.111.168,65.422,65.422,0,0,0,9.807,6.561.155.155,0,0,0,.17-.258Z" transform="translate(-29.431 -235.56)"/></g><path class="b" d="M67.771,252.325s-.21.178-.588.513L44.894,309.706c.108.053.215.107.329.151,5,1.958,12.586-5.489,18.813-21.376S67.771,252.325,67.771,252.325Z" transform="translate(-7.341 -238.477)"/><g transform="translate(36.198 23.917)"><path class="c" d="M50.065,293.436q2.234-5.747,4.484-11.487,4.487-11.487,8.825-23.03a.071.071,0,0,0-.131-.052q-3.141,7.716-6.22,15.457a33.272,33.272,0,0,0-2.906-6.513.124.124,0,0,0-.217.095,34.2,34.2,0,0,0,2.955,6.841c-.931,2.338-1.866,4.672-2.787,7.013q-2.256,5.738-4.516,11.474c-1.5,3.8-3.267,7.591-4.452,11.5a.226.226,0,0,0,.421.164C47.3,301.226,48.583,297.244,50.065,293.436Z" transform="translate(-43.433 -258.829)"/><path class="c" d="M51.149,281.933a69.544,69.544,0,0,0-4.813-10.955.077.077,0,0,0-.141.062,69.543,69.543,0,0,0,4.766,10.976.1.1,0,0,0,.188-.083Z" transform="translate(-42.828 -252.192)"/><path class="c" d="M59.534,271.087c-1.495.552-2.965,1.164-4.442,1.76a20.342,20.342,0,0,0-3.893,1.836.117.117,0,0,0,.09.206,20.315,20.315,0,0,0,3.992-1.61c1.441-.678,2.89-1.341,4.31-2.063a.071.071,0,1,0-.057-.13h0Z" transform="translate(-40.106 -252.115)"/><path class="c" d="M55.485,280.436a60.9,60.9,0,0,0-7.605,3.245.129.129,0,0,0,.1.237,60.877,60.877,0,0,0,7.55-3.375.058.058,0,0,0-.046-.106Z" transform="translate(-41.943 -246.987)"/><path class="c" d="M48.153,288.9a54.475,54.475,0,0,0-3.975-8.986.084.084,0,0,0-.155.064v0A54.479,54.479,0,0,0,47.916,289a.129.129,0,0,0,.236-.1Z" transform="translate(-44.019 -247.297)"/></g><path class="b" d="M26.263,288.454C32.675,302,39.756,308.232,44.142,306.578l-23.479-49.6C20.563,260.448,20.462,276.2,26.263,288.454Z" transform="translate(-20.637 -235.928)"/><g transform="translate(3.935 29.376)"><path class="c" d="M37.686,292.354q-2.384-5-4.754-10.007-4.751-10.009-9.632-19.955a.064.064,0,1,0-.115.054h0q3.113,6.807,6.282,13.588a29.9,29.9,0,0,0-6.051-2.11.111.111,0,0,0-.072.2,30.727,30.727,0,0,0,6.3,2.279c.956,2.048,1.908,4.1,2.872,6.142q2.364,5.01,4.726,10.02c1.561,3.322,2.954,6.812,4.782,9.994a.2.2,0,0,0,.366-.174C41.081,298.956,39.266,295.667,37.686,292.354Z" transform="translate(-23.179 -262.355)"/><path class="c" d="M34.784,280.358a62.5,62.5,0,0,0-10.131-3.6.07.07,0,0,0-.046.131h0a62.523,62.523,0,0,0,10.116,3.641.093.093,0,1,0,.063-.175h0Z" transform="translate(-22.42 -254.461)"/><path class="c" d="M32.017,270.122c-.559,1.317-1.064,2.657-1.583,3.99a18.283,18.283,0,0,0-1.2,3.677.105.105,0,0,0,.19.068,18.258,18.258,0,0,0,1.405-3.6c.444-1.36.9-2.716,1.3-4.09a.064.064,0,1,0-.12-.043Z" transform="translate(-19.858 -258.123)"/><path class="c" d="M35.718,278.364a54.7,54.7,0,0,0-2.561,6.975.116.116,0,1,0,.218.079h0a54.7,54.7,0,0,0,2.441-7.017.052.052,0,0,0-.1-.038v0Z" transform="translate(-17.713 -253.6)"/><path class="c" d="M37.494,286.609a48.956,48.956,0,0,0-8.327-2.933.075.075,0,0,0-.051.141,48.959,48.959,0,0,0,8.3,3.01.116.116,0,0,0,.077-.218Z" transform="translate(-19.948 -250.67)"/></g><path d="M26.757,286.507v18.458a14.587,14.587,0,0,0,14.587,14.587h14.1a29.708,29.708,0,0,0,3.086-.886,14.5,14.5,0,0,0,2.052-.6c.012,0,.044-.011.053-.012l0,0a14.583,14.583,0,0,0,9.4-13.623V286.507Z" transform="translate(-17.283 -219.741)"/><path class="c" d="M26.757,286.507v18.458a14.587,14.587,0,0,0,14.587,14.587h14.1a29.708,29.708,0,0,0,3.086-.886,14.5,14.5,0,0,0,2.052-.6c.012,0,.044-.011.053-.012l0,0a14.583,14.583,0,0,0,9.4-13.623V286.507Z" transform="translate(-17.283 -219.741)"/></g><g transform="translate(-11.404 -11.71)"><g transform="translate(46.147 229.779)"><path d="M128.418,307.4v2.048a1.517,1.517,0,0,0,1.518,1.518h30.64s-4.266-7.869-19.107-8.37A41.307,41.307,0,0,0,128.418,307.4Z" transform="translate(-25.361 -112.53)"/><path class="u" d="M126.03,267.956,175.7,278.621,155.03,336.293l-7.913,2.756s-.724-37.439,10.753-47.8l-49.912,4" transform="translate(-44.059 -144.183)"/><path class="u" d="M153.641,267.956l-16.857,74.659L77.746,327.409l.81-5.077s37.016-3.723,45.579,5.4L114.4,282.486s-2.038-10.625,0-14.53C114.4,267.956,130.6,274.6,153.641,267.956Z" transform="translate(-71.67 -144.183)"/><path d="M81.457,296.367H74.571v20.284H88.034a10.058,10.058,0,0,0-7.388-6.522v-8.685Z" transform="translate(-74.571 -118.219)"/><g transform="translate(42.727)"><path class="v" d="M124.323,226.918c2.479-3.871,11.728-6.108,15.805,8.659,5.134,18.6,11.479,42.158,44.9,50.956l-.051,7.62s-41.8,2.074-58.888-41.824C123.946,246.813,119.445,234.537,124.323,226.918Z" transform="translate(-73.83 -184.317)"/><path class="v" d="M159.673,236.689s3,14.954-2.131,25.785-26.486,54.45-26.486,54.45-13,9.887-34.161-9.722c0,0,25.094-58.22,30.8-67.769s13.291-18.591,22.339-12.37Z" transform="translate(-96.896 -183.428)"/><path class="j" d="M124.45,219.02,121.677,233.4s2.5,8.991,10.547,12.558l2.873-14.9Z" transform="translate(-74.248 -188.905)"/><path class="j" d="M133.788,212.375a39.438,39.438,0,0,1,3.795,8.006c.205,1.129-3.447,1.7-3.447,1.7Z" transform="translate(-63.182 -194.978)"/><path class="j" d="M145.548,210.169s4.411,17.62,2.5,24.316c-1.174,4.11-15.852,9.394-22.438-1.675a15.569,15.569,0,0,1-5.807-7.464c-.309-.851,1.662-1.424,2.789-1.44a3.89,3.89,0,0,1,2.784,1.3,5.843,5.843,0,0,1,1.357,3.306,5.67,5.67,0,0,0,1.335-5.454s3.862-2.655,2.975-6.69c0,0,4.491-4.075,6.6-6.575A10.936,10.936,0,0,0,145.548,210.169Z" transform="translate(-75.992 -197.34)"/><path class="m" d="M133.3,240.865l-5.142,3.518s-13.479-15.485-4.688-19.795C123.474,224.587,123.694,232.758,133.3,240.865Z" transform="translate(-75.328 -183.816)"/><path class="m" d="M128.576,230.61l-1.388,7.2,5.7,1.638a20.507,20.507,0,0,0-3.791-11.512Z" transform="translate(-69.212 -180.759)"/><path class="v" d="M112.079,236.149c2.077-4.1,11.055-7.257,16.6,7.025,6.98,17.986,15.664,40.789,49.8,46.179l.716,7.586s-41.379,6.27-62.8-35.686C113.706,255.979,107.991,244.22,112.079,236.149Z" transform="translate(-84.326 -176.413)"/><path class="j" d="M159.409,272.374a26.269,26.269,0,0,1-6.139,1.64l-6.205-1.7-.6-8.219.785-1.933,1.963-2.51,1.5,2.222,2.114.415a14.073,14.073,0,0,0,5.581-.13,34.321,34.321,0,0,0,5.478-1.569l.4,3.25-3.231,1.895-.585,4.97Z" transform="translate(-51.597 -151.77)"/><path d="M150.825,216.309a4.77,4.77,0,0,0,2.528-5.8c-1.4-3.889-4.75-9.054-12.426-6.576s-13.479,7.732-18.784,8.589-6.535,6.026-1.872,15.656,6.666,14.375,6.666,14.375,1.472-8.308,3.485-7.986,5.255-5.156,5.255-5.156l.534,1.415,3.581-.24s-4.671-10.092-2.2-11.368S150.437,217.429,150.825,216.309Z" transform="translate(-78.176 -203.285)"/><path class="j" d="M129.448,217.1a3.04,3.04,0,0,0-5.022.335c-1.55,2.618,3.25,6.89,4.648,6.586S131.036,220.556,129.448,217.1Z" transform="translate(-72.016 -191.727)"/></g></g><path class="m" d="M2.109,0H37.2a2.111,2.111,0,0,1,2.111,2.111V38.649A2.111,2.111,0,0,1,37.2,40.76H2.111A2.111,2.111,0,0,1,0,38.649V2.109A2.111,2.111,0,0,1,2.109,0Z" transform="translate(239.392 356.927) rotate(180)"/><g transform="translate(206.461 324.668)"><path class="e" d="M153.3,255.474a2.309,2.309,0,1,0,2.238,2.308,2.276,2.276,0,0,0-2.238-2.308Zm0,3.328a1.02,1.02,0,1,1,.988-1.019,1,1,0,0,1-.988,1.019Z" transform="translate(-142.634 -235.805)"/><path class="e" d="M160.089,255.474a2.31,2.31,0,1,0,2.238,2.308,2.276,2.276,0,0,0-2.238-2.308Zm0,3.328a1.02,1.02,0,1,1,.988-1.019,1,1,0,0,1-.988,1.019Z" transform="translate(-141.571 -235.805)"/><path class="e" d="M161.54,244.965h-8.953a.645.645,0,0,0,0,1.289h8.953a.645.645,0,0,0,0-1.289Z" transform="translate(-142.471 -237.45)"/><path class="e" d="M160.986,247.859h-7.978a.645.645,0,0,0,0,1.289h7.978a.645.645,0,0,0,0-1.289Z" transform="translate(-142.405 -236.997)"/><path class="e" d="M168.919,243.112a1.23,1.23,0,0,0-.968-.474h-19.46l-.393-1.968a1.282,1.282,0,0,0-.726-.922l-2.742-1.228a.617.617,0,0,0-.821.334.652.652,0,0,0,.324.848l2.742,1.228,3.023,15.136a1.264,1.264,0,0,0,1.224,1.029h14.967a.645.645,0,0,0,0-1.289H151.121l-.368-1.841H166.2a1.264,1.264,0,0,0,1.224-1.029l1.747-8.749a1.314,1.314,0,0,0-.255-1.075Zm-2.716,9.564H150.5l-1.747-8.749h19.2Z" transform="translate(-143.756 -238.467)"/></g></g></g></g></g></svg>